<!DOCTYPE svg PUBLIC "-//W3C//DTD SVG 1.1//EN" "http://www.w3.org/Graphics/SVG/1.1/DTD/svg11.dtd">
<!-- Uploaded to: SVG Repo, www.svgrepo.com, Transformed by: SVG Repo Mixer Tools -->
<svg height="800px" width="800px" version="1.1" id="Layer_1" xmlns="http://www.w3.org/2000/svg" xmlns:xlink="http://www.w3.org/1999/xlink" viewBox="0 0 392.469 392.469" xml:space="preserve" fill="#000000">
<g id="SVGRepo_bgCarrier" stroke-width="0"/>
<g id="SVGRepo_tracerCarrier" stroke-linecap="round" stroke-linejoin="round"/>
<g id="SVGRepo_iconCarrier"> <g> <path style="fill:#5be17d;" d="M114.424,10.796c0,45.123,36.719,81.778,81.778,81.778s81.778-36.719,81.778-81.778H114.424z"/> <path style="fill:#5be17d;" d="M196.202,299.83c26.376,0,49.842,12.606,64.776,32.065H131.426 C146.424,312.436,169.826,299.83,196.202,299.83z"/> <path style="fill:#5be17d;" d="M277.915,382.384H114.424c0-0.259,0-0.517,0-0.776c0-9.762,1.81-19.071,4.978-27.798h153.535 c3.168,8.663,4.978,18.036,4.978,27.798C277.85,381.867,277.85,382.125,277.915,382.384z"/> </g> <g> <path style="fill:#ffbf0f;" d="M196.202,278.756c41.309,0,75.572-30.901,80.873-70.788H115.329 C120.63,247.79,154.893,278.756,196.202,278.756z"/> <path style="fill:#ffbf0f;" d="M196.202,114.424c-41.632,0-76.024,31.289-81.067,71.628h162.133 C272.226,145.713,237.834,114.424,196.202,114.424z"/> </g> <path style="fill:#157946;" d="M242.166,288.84c34.069-17.002,57.665-52.105,57.665-92.638s-23.467-75.636-57.6-92.638 c34.069-17.002,57.6-52.105,57.6-92.638C299.83,4.913,294.982,0,288.905,0S277.98,4.848,277.98,10.925 c0,10.02-1.939,19.653-5.236,28.509H119.725c-3.297-8.857-5.236-18.489-5.236-28.509C114.489,4.913,109.64,0,103.564,0 c-6.077,0-10.925,4.848-10.925,10.925c0,40.598,23.467,75.636,57.6,92.638c-34.069,17.002-57.6,52.105-57.6,92.638 s23.596,75.701,57.665,92.638c-34.069,17.002-57.665,52.105-57.665,92.703c0,6.012,4.848,10.925,10.925,10.925 c6.077,0,10.925-4.849,10.925-10.925c0-9.762,1.745-19.071,4.913-27.798h153.535c3.168,8.663,4.913,18.036,4.913,27.798 c0,6.012,4.848,10.925,10.925,10.925c6.077,0,10.925-4.849,10.925-10.925C299.766,340.945,276.234,305.842,242.166,288.84z M132.008,61.22h128.453c-14.998,19.006-38.141,31.354-64.194,31.354C170.149,92.574,147.006,80.291,132.008,61.22z M196.202,114.424c22.82,0,43.442,9.438,58.246,24.501H137.956C152.76,123.798,173.382,114.424,196.202,114.424z M122.634,160.711 L122.634,160.711h147.071l0,0c3.814,7.822,6.335,16.291,7.499,25.277H115.135C116.299,177.131,118.82,168.598,122.634,160.711z M115.394,207.838h161.552c-1.293,8.986-4.008,17.455-8.016,25.277H123.41C119.467,225.422,116.687,216.889,115.394,207.838z M139.636,255.095h113.131c-14.675,14.158-34.586,22.885-56.566,22.885S154.311,269.123,139.636,255.095z M131.426,331.895 c14.998-19.459,38.4-32.065,64.776-32.065s49.842,12.606,64.776,32.065H131.426z"/> </g>
</svg>